<?xml version="1.0" encoding="UTF-8"?>
<svg version="1.1" xmlns="http://www.w3.org/2000/svg" width="1569" height="787">
<path d="M0 0 C0.74121094 0.59167969 1.48242188 1.18335938 2.24609375 1.79296875 C7.98462412 6.50236696 12.48933865 12.13287165 17 18 C17.6084375 18.78117187 18.216875 19.56234375 18.84375 20.3671875 C33.22251122 39.77851514 39 62.10492817 39 86 C11.94 86 -15.12 86 -43 86 C-44.98 78.08 -44.98 78.08 -47 70 C-54.11660452 55.3397947 -64.68673799 46.75062187 -79.91845703 41.31542969 C-101.84100585 34.20629929 -129.77691159 35.19755465 -150.625 45.3125 C-158.42540421 49.53771895 -164.58388074 54.19817076 -169 62 C-169.58905867 64.87641221 -169.63175095 67.68717301 -169.63671875 70.6171875 C-169.64766068 71.43317413 -169.6586026 72.24916077 -169.6698761 73.08987427 C-169.68568223 74.80936394 -169.69095463 76.52897919 -169.6862793 78.24853516 C-169.68749389 80.86185542 -169.74729052 83.46956861 -169.81054688 86.08203125 C-170.16984569 96.25149147 -170.16984569 96.25149147 -165.671875 105.0078125 C-163.8832528 106.64017945 -163.8832528 106.64017945 -162 108 C-161.39921631 108.52706543 -160.79843262 109.05413086 -160.17944336 109.59716797 C-151.60493545 117.03626241 -140.01674779 121.65878774 -129.2421875 124.82421875 C-127.97104599 125.20135262 -127.97104599 125.20135262 -126.67422485 125.58610535 C-113.14693865 129.5036733 -99.3646283 132.51931632 -85.64306641 135.66918945 C-55.15531203 142.69142475 -23.05008473 151.36045251 2 171 C2.97066406 171.75152344 3.94132812 172.50304687 4.94140625 173.27734375 C27.75084082 191.43179167 41.16627755 215.04352573 44.48266602 244.10107422 C47.37972262 273.17020352 40.5984485 303.16643225 22.265625 326.26953125 C21.51796875 327.17058594 20.7703125 328.07164062 20 329 C19.31421875 329.84949219 18.6284375 330.69898438 17.921875 331.57421875 C-7.61237574 361.69517749 -49.90020782 373.65646404 -87.79785156 376.8190918 C-95.04669159 377.22862141 -102.30382284 377.24330725 -109.5625 377.25 C-110.42116669 377.25133942 -111.27983337 377.25267883 -112.16452026 377.25405884 C-131.99775676 377.24737532 -150.52433298 375.17335722 -170 371 C-170 437 -170 503 -170 571 C-204.32 571 -238.64 571 -274 571 C-274 373.99 -274 176.98 -274 -26 C-222.52 -26.495 -222.52 -26.495 -170 -27 C-163.4 -28.65 -156.8 -30.3 -150 -32 C-145.78734396 -32.72435928 -141.73005486 -33.37069113 -137.5 -33.8125 C-135.88351563 -33.98676514 -135.88351563 -33.98676514 -134.234375 -34.16455078 C-87.52983771 -38.7314259 -36.7346037 -31.32450006 0 0 Z M-170 191 C-170.23185564 203.52593498 -170.40946044 216.05135842 -170.51812172 228.57900333 C-170.57027913 234.39645822 -170.64100038 240.21244365 -170.75439453 246.02905273 C-170.86317517 251.64424977 -170.92286709 257.25803515 -170.94877243 262.87420464 C-170.96722861 265.0149909 -171.00327244 267.15570112 -171.05730057 269.29588509 C-171.82548999 280.65652254 -171.82548999 280.65652254 -167.88739014 290.81295776 C-165.29585283 292.67465283 -162.96841245 293.85487998 -160 295 C-158.2883381 295.88945696 -156.5795558 296.78449964 -154.875 297.6875 C-129.21002451 308.78092022 -97.21672595 308.38437304 -71.4375 298.1875 C-65.58649391 295.49846949 -60.76629725 292.30873272 -56 288 C-55.37609375 287.47921875 -54.7521875 286.9584375 -54.109375 286.421875 C-47.42423653 280.43431619 -42.31463029 271.12176841 -41.76171875 262.12109375 C-41.47908037 250.40353459 -42.26254794 242.21473946 -49.9375 232.875 C-66.95615922 215.27897108 -93.66949421 210.41117393 -116.48999023 204.637146 C-121.4072738 203.38893271 -126.32036141 202.12429325 -131.234375 200.86328125 C-150.60706497 195.891748 -150.60706497 195.891748 -170 191 Z " fill="#E83018" transform="translate(294,162)"/>
<path d="M0 0 C22.14101508 19.93572066 35.82267552 47.19436599 42.40942383 75.9440918 C42.56451416 76.61899658 42.71960449 77.29390137 42.87939453 77.98925781 C45.86510761 91.85045112 46.59645255 105.44959673 46.53442383 119.5690918 C46.53226868 120.4518277 46.53011353 121.3345636 46.52789307 122.24404907 C46.38728448 158.13703219 38.02434158 194.32929305 15.22192383 222.9440918 C14.80539551 223.46745117 14.38886719 223.99081055 13.9597168 224.5300293 C-7.0356915 250.69176659 -35.84824549 267.02987251 -68.77807617 272.9440918 C-69.76453125 273.12141846 -70.75098633 273.29874512 -71.76733398 273.48144531 C-81.51048526 275.05828635 -91.0623171 275.30341202 -100.90307617 275.2565918 C-101.7188916 275.25443665 -102.53470703 275.25228149 -103.37524414 275.25006104 C-115.71879561 275.19777322 -127.71641028 274.79855678 -139.77807617 271.9440918 C-140.61612793 271.75073242 -141.45417969 271.55737305 -142.31762695 271.3581543 C-176.49091569 263.20337945 -206.86955394 242.82090273 -225.77807617 212.9440918 C-251.56930967 170.55629716 -255.52137615 118.2420479 -244.24682617 70.5847168 C-237.90218479 45.36048038 -225.55953741 23.81880743 -207.77807617 4.9440918 C-207.17866211 4.28022461 -206.57924805 3.61635742 -205.96166992 2.93237305 C-154.72549177 -51.62364386 -53.76019714 -46.94281118 0 0 Z M-144.93432617 49.44018555 C-160.44270833 69.51161091 -164.00908391 94.12625794 -164.02807617 118.8190918 C-164.02875092 119.60410065 -164.02942566 120.3891095 -164.03012085 121.19790649 C-164.0143761 132.71232039 -163.64960588 143.73586293 -160.77807617 154.9440918 C-160.52864258 155.94762695 -160.52864258 155.94762695 -160.27416992 156.97143555 C-155.45937313 175.83830592 -146.01541471 192.67505862 -129.39135742 203.5456543 C-115.49123453 210.98398613 -98.93588601 211.96730101 -83.83666992 207.9753418 C-66.92540429 202.27345913 -56.82902745 189.84384675 -49.02416992 174.49487305 C-34.92661078 143.50850872 -34.64739 103.83589593 -45.99633789 71.98364258 C-52.53489679 54.92457917 -62.45932772 40.62770386 -79.40307617 32.5690918 C-103.14700326 23.13828772 -128.44418189 30.35105113 -144.93432617 49.44018555 Z " fill="#054A71" transform="translate(896.778076171875,264.055908203125)"/>
<path d="M0 0 C0.82097168 0.19335938 1.64194336 0.38671875 2.48779297 0.5859375 C20.45467871 4.90358703 37.11981935 11.94551602 52 23 C52.81082031 23.58910156 53.62164063 24.17820312 54.45703125 24.78515625 C66.96001 34.29873136 77.61415026 45.73757693 86 59 C86.57741943 59.90758057 86.57741943 59.90758057 87.16650391 60.83349609 C98.14592224 78.40884484 104.26185731 97.72207518 108 118 C108.13132324 118.68320312 108.26264648 119.36640625 108.39794922 120.0703125 C116.15251215 162.35606378 108.43224302 211.66044129 84.453125 247.5 C63.46270464 277.82313456 32.58030438 298.06988832 -3.75 304.875 C-6.16059996 305.28720216 -8.5778607 305.66214795 -11 306 C-12.27746094 306.18304687 -13.55492187 306.36609375 -14.87109375 306.5546875 C-34.6220728 308.6524701 -56.64426027 308.52874679 -76 304 C-77.24330078 303.71793701 -77.24330078 303.71793701 -78.51171875 303.43017578 C-102.99970474 297.67879342 -123.87142925 286.378216 -142 269 C-142.81984375 268.24332031 -143.6396875 267.48664063 -144.484375 266.70703125 C-166.83241027 245.43475545 -178.61798249 215.85724579 -184 186 C-184.13132324 185.27377441 -184.26264648 184.54754883 -184.39794922 183.79931641 C-190.46485094 147.88291783 -186.37527685 106.63927373 -170 74 C-169.68272949 73.35595215 -169.36545898 72.7119043 -169.03857422 72.04833984 C-162.69170063 59.26288398 -154.82685164 48.38650483 -145 38 C-143.86111328 36.76443359 -143.86111328 36.76443359 -142.69921875 35.50390625 C-108.00154709 -0.89741541 -47.77844474 -11.90417581 0 0 Z M-78 78 C-78.56589844 78.56589844 -79.13179687 79.13179687 -79.71484375 79.71484375 C-95.50472519 96.84498038 -100.08771046 122.50636107 -101 145 C-101.04125 145.98613281 -101.0825 146.97226562 -101.125 147.98828125 C-101.67384925 174.98480358 -96.70576549 205.2302552 -77.83862305 225.72998047 C-66.78166386 237.1955395 -53.35271518 241.98397722 -37.5 242.375 C-22.50111249 242.0046571 -10.03817106 237.53777698 0.9453125 227.1796875 C20.97953724 205.92665061 25.87035494 174.26741617 25.09326172 146.20214844 C24.09813657 122.70469066 19.1990912 100.18070512 5 81 C3.8553125 79.39125 3.8553125 79.39125 2.6875 77.75 C-8.58628358 66.2140354 -21.4070476 61.06347678 -37.3125 60.6875 C-54.06266492 60.95766395 -66.24259518 66.24259518 -78 78 Z " fill="#054B71" transform="translate(1198,232)"/>
<path d="M0 0 C0.70981018 -0.00100708 1.41962036 -0.00201416 2.15093994 -0.00305176 C14.24679225 0.00851638 25.93834607 0.86691822 37.8125 3.25 C38.66666504 3.42112305 39.52083008 3.59224609 40.40087891 3.76855469 C54.70796495 6.69773248 54.70796495 6.69773248 57.8125 8.25 C57.17928846 15.4099464 55.800209 22.19577835 54.125 29.1796875 C53.86243408 30.29183624 53.59986816 31.40398499 53.3293457 32.54983521 C52.77705049 34.88504687 52.22224008 37.21966497 51.66503906 39.55371094 C50.81046334 43.13353159 49.96315063 46.71501027 49.1171875 50.296875 C48.57854197 52.57041133 48.03949369 54.84385229 47.5 57.1171875 C47.11871948 58.7249556 47.11871948 58.7249556 46.72973633 60.36520386 C46.37431763 61.85287766 46.37431763 61.85287766 46.01171875 63.37060547 C45.80377686 64.24280731 45.59583496 65.11500916 45.3815918 66.01364136 C44.93223044 67.77949558 44.38870888 69.52137335 43.8125 71.25 C39.22442329 70.72060653 34.72599141 70.04531138 30.1875 69.1875 C19.2672197 67.37203778 8.29362218 67.3074107 -2.1875 71.25 C-3.53611436 72.22929417 -4.87299551 73.22537532 -6.1875 74.25 C-6.8475 74.25 -7.5075 74.25 -8.1875 74.25 C-9.68210302 77.15877898 -11.01031181 80.098841 -12.25 83.125 C-12.59160156 83.94742188 -12.93320313 84.76984375 -13.28515625 85.6171875 C-16.8758576 96.09395249 -15.77754088 109.00102189 -16.1875 119.25 C3.6125 119.25 23.4125 119.25 43.8125 119.25 C43.8125 140.04 43.8125 160.83 43.8125 182.25 C24.0125 182.25 4.2125 182.25 -16.1875 182.25 C-16.1875 260.46 -16.1875 338.67 -16.1875 419.25 C-43.9075 419.25 -71.6275 419.25 -100.1875 419.25 C-100.1875 341.04 -100.1875 262.83 -100.1875 182.25 C-114.0475 182.25 -127.9075 182.25 -142.1875 182.25 C-142.1875 161.46 -142.1875 140.67 -142.1875 119.25 C-128.3275 119.25 -114.4675 119.25 -100.1875 119.25 C-100.22875 115.186875 -100.27 111.12375 -100.3125 106.9375 C-100.39780382 76.1205682 -95.8346037 49.02329124 -74.125 25.6875 C-53.89437243 6.32439505 -27.29352319 0.02686915 0 0 Z " fill="#064A71" transform="translate(1507.1875,113.75)"/>
<path d="M0 0 C0 24.75 0 49.5 0 75 C-6.27 74.01 -12.54 73.02 -19 72 C-22.6635365 71.64415454 -26.21343337 71.32579189 -29.875 71.1875 C-31.1887561 71.13396362 -31.1887561 71.13396362 -32.52905273 71.0793457 C-51.71467809 70.50418398 -68.63676485 76.34284427 -82.6796875 89.52734375 C-92.94038744 100.46172601 -98.13694257 114.70069981 -98.15821838 129.55502319 C-98.16315636 130.29518917 -98.16809434 131.03535514 -98.17318195 131.79795039 C-98.18848438 134.26682805 -98.19689779 136.73567986 -98.20532227 139.20458984 C-98.2149065 140.97885361 -98.2249169 142.75311512 -98.23532104 144.52737427 C-98.26231707 149.33676847 -98.2833553 154.14617243 -98.30332303 158.95560026 C-98.32521534 163.98446645 -98.35258814 169.01330273 -98.37937927 174.04214478 C-98.42926231 183.56174059 -98.47421741 193.08135305 -98.51740164 202.60098135 C-98.57605172 215.46714572 -98.642315 228.33327073 -98.70815182 241.19939995 C-98.81165784 261.4662401 -98.90499266 281.7331141 -99 302 C-126.72 302 -154.44 302 -183 302 C-183 203 -183 104 -183 2 C-156.27 2 -129.54 2 -102 2 C-102 19.16 -102 36.32 -102 54 C-101.01 54 -100.02 54 -99 54 C-98.835 52.845 -98.67 51.69 -98.5 50.5 C-94.61950591 33.47935006 -83.16026753 18.84286326 -69.10546875 8.93359375 C-48.18932126 -4.08966789 -23.61724827 -5.90431207 0 0 Z " fill="#054A71" transform="translate(604,231)"/>
<path d="M0 0 C13.53 0 27.06 0 41 0 C47.87737688 18.33967169 47.87737688 18.33967169 50.33984375 25.67578125 C50.76506821 26.93060806 50.76506821 26.93060806 51.19888306 28.21078491 C51.80182718 29.99022633 52.40374403 31.77001614 53.00466919 33.55014038 C54.63986747 38.39239649 56.28438138 43.23148302 57.9296875 48.0703125 C58.26728592 49.06328842 58.60488434 50.05626434 58.95271301 51.07933044 C62.43377998 61.30152111 65.99357429 71.49572409 69.5625 81.6875 C74.41116815 95.54550046 79.23263464 109.41242399 83.99118042 123.30166626 C84.61830823 125.1312761 85.24648978 126.96052511 85.87576294 128.78939819 C86.74187655 131.30777308 87.60397643 133.82748398 88.46484375 136.34765625 C88.72341156 137.09751801 88.98197937 137.84737976 89.24838257 138.6199646 C91 143.77086559 91 143.77086559 91 146 C79.78 146 68.56 146 57 146 C55.35 141.111875 53.7 136.22375 52 131.1875 C51.47792969 129.64860107 50.95585938 128.10970215 50.41796875 126.52416992 C50.01191406 125.31349854 49.60585937 124.10282715 49.1875 122.85546875 C48.76855469 121.61434326 48.34960938 120.37321777 47.91796875 119.09448242 C47 116 47 116 47 113 C29.84 113.33 12.68 113.66 -5 114 C-8.24931978 124.15603547 -8.24931978 124.15603547 -11.49194336 134.31420898 C-11.89550049 135.57048096 -12.29905762 136.82675293 -12.71484375 138.12109375 C-12.92564575 138.78532349 -13.13644775 139.44955322 -13.3536377 140.13391113 C-14.8859282 144.8859282 -14.8859282 144.8859282 -16 146 C-18.52094076 146.08847743 -21.01430893 146.11527301 -23.53515625 146.09765625 C-24.66503212 146.09553383 -24.66503212 146.09553383 -25.81773376 146.09336853 C-28.2326956 146.08775376 -30.64756601 146.07519883 -33.0625 146.0625 C-34.69596221 146.0574869 -36.32942586 146.05292366 -37.96289062 146.04882812 C-41.97529585 146.03777954 -45.98763241 146.02050506 -50 146 C-43.95695747 127.62234487 -37.74881557 109.30928876 -31.34829712 91.05307007 C-24.69300909 72.06307145 -18.15369446 53.0337932 -11.625 34 C-11.09949152 32.46819924 -10.57397885 30.93639991 -10.04846191 29.40460205 C-8.56572881 25.08238323 -7.08346677 20.76000306 -5.6015625 16.4375 C-5.25855165 15.43702196 -5.25855165 15.43702196 -4.9086113 14.41633224 C-4.2678503 12.54714185 -3.62732731 10.67786986 -2.98681641 8.80859375 C-2.62568756 7.75470459 -2.26455872 6.70081543 -1.89248657 5.61499023 C-1.25452086 3.74574741 -0.62458538 1.87375614 0 0 Z M20 34 C17.73787923 41.04695413 15.47774458 48.09454299 13.21899414 55.14257812 C12.45024679 57.54051158 11.68104373 59.93829899 10.91137695 62.3359375 C9.80560581 65.78086732 8.70147086 69.22631785 7.59765625 72.671875 C7.25283707 73.74491882 6.90801788 74.81796265 6.55274963 75.92352295 C6.23249313 76.92425842 5.91223663 77.9249939 5.58227539 78.95605469 C5.15924889 80.27509796 5.15924889 80.27509796 4.72767639 81.62078857 C4.08335366 83.72746679 3.53430796 85.86276817 3 88 C14.55 88 26.1 88 38 88 C36.47076496 80.932276 36.47076496 80.932276 34.51953125 74.06274414 C34.24584717 73.20898697 33.97216309 72.3552298 33.69018555 71.4756012 C33.40054932 70.58775436 33.11091309 69.69990753 32.8125 68.78515625 C32.35774292 67.37972816 32.35774292 67.37972816 31.89379883 65.94590759 C31.25717105 63.98302315 30.61838851 62.02083636 29.97753906 60.05932617 C28.99563742 57.04912569 28.02484638 54.03548706 27.0546875 51.02148438 C26.43295864 49.10915803 25.81058585 47.19704088 25.1875 45.28515625 C24.89786377 44.3831398 24.60822754 43.48112335 24.30981445 42.55177307 C24.03613037 41.72008102 23.76244629 40.88838898 23.48046875 40.03149414 C23.12311646 38.93303917 23.12311646 38.93303917 22.75854492 37.81239319 C22.04954508 35.79669144 22.04954508 35.79669144 20 34 Z " fill="#E83018" transform="translate(1407,593)"/>
<path d="M0 0 C10.23 0 20.46 0 31 0 C31 48.18 31 96.36 31 146 C20.77 146 10.54 146 0 146 C0 97.82 0 49.64 0 0 Z " fill="#E83018" transform="translate(1525,593)"/>
</svg>
